<svg width="24" height="24" viewBox="0 0 24 24" fill="none" xmlns="http://www.w3.org/2000/svg">
<path fill-rule="evenodd" clip-rule="evenodd" d="M2.875 5.00018C2.875 4.46972 3.07254 3.96099 3.42417 3.5859C3.77581 3.21081 4.25272 3.00009 4.75 3.00009H17.25C17.7473 3.00009 18.2242 3.21081 18.5758 3.5859C18.9275 3.96099 19.125 4.46972 19.125 5.00018V9.3337C19.125 9.59893 19.2238 9.85329 19.3996 10.0408C19.5754 10.2284 19.8139 10.3337 20.0625 10.3337C20.3111 10.3337 20.5496 10.2284 20.7254 10.0408C20.9012 9.85329 21 9.59893 21 9.3337V5.00018C21 3.93926 20.6049 2.9218 19.9017 2.17162C19.1984 1.42145 18.2446 1 17.25 1H4.75C3.75544 1 2.80161 1.42145 2.09835 2.17162C1.39509 2.9218 1 3.93926 1 5.00018L1 20.0008C1.00016 20.1985 1.05523 20.3917 1.15826 20.556C1.26128 20.7203 1.40764 20.8483 1.57885 20.9239C1.75005 20.9995 1.93842 21.0193 2.12017 20.9808C2.30192 20.9423 2.46889 20.8472 2.6 20.7075L6.07875 17.0007H11.3125C11.5611 17.0007 11.7996 16.8953 11.9754 16.7078C12.1512 16.5203 12.25 16.2659 12.25 16.0007C12.25 15.7354 12.1512 15.4811 11.9754 15.2935C11.7996 15.106 11.5611 15.0006 11.3125 15.0006H5.30375L5.02875 15.294L2.875 17.5874V5.00018ZM17.25 18.3341C17.0014 18.3341 16.7629 18.2287 16.5871 18.0412C16.4113 17.8536 16.3125 17.5993 16.3125 17.3341V15.334H14.4375C14.1889 15.334 13.9504 15.2286 13.7746 15.0411C13.5988 14.8535 13.5 14.5991 13.5 14.3339C13.5 14.0687 13.5988 13.8143 13.7746 13.6268C13.9504 13.4392 14.1889 13.3339 14.4375 13.3339H16.3125V11.3338C16.3125 11.0686 16.4113 10.8142 16.5871 10.6266C16.7629 10.4391 17.0014 10.3337 17.25 10.3337C17.4986 10.3337 17.7371 10.4391 17.9129 10.6266C18.0887 10.8142 18.1875 11.0686 18.1875 11.3338V13.3339H20.0625C20.3111 13.3339 20.5496 13.4392 20.7254 13.6268C20.9012 13.8143 21 14.0687 21 14.3339C21 14.5991 20.9012 14.8535 20.7254 15.0411C20.5496 15.2286 20.3111 15.334 20.0625 15.334H18.1875V17.3341C18.1875 17.5993 18.0887 17.8536 17.9129 18.0412C17.7371 18.2287 17.4986 18.3341 17.25 18.3341Z" fill="#0B0A0A"/>
</svg>
